<?xml version="1.0" encoding="UTF-8"?>
<svg version="1.1" xmlns="http://www.w3.org/2000/svg" width="671" height="402">
<path d="M0 0 C0 0.66 0 1.32 0 2 C5.445 2.495 5.445 2.495 11 3 C11.14490674 30.54565616 10.94865214 58.08375638 10.59428024 85.62687683 C10.56291231 88.09259002 10.53277547 90.55831544 10.50296021 93.02404785 C10.30964186 108.85601955 10.07660785 124.68340228 9.53125 140.5078125 C9.49467789 141.59474396 9.45810577 142.68167542 9.42042542 143.80154419 C9.0273233 154.23849975 8.0914392 164.61543286 7 175 C6.01 175.33 5.02 175.66 4 176 C2.64170277 173.28340554 2.7650835 171.02024814 2.64282227 167.97973633 C2.58922546 166.69943542 2.53562866 165.41913452 2.48040771 164.10003662 C2.42560692 162.67737331 2.37094419 161.25470467 2.31640625 159.83203125 C2.25630074 158.34725591 2.19584796 156.86249458 2.1350708 155.37774658 C1.97199143 151.35935409 1.81513567 147.34074114 1.65985489 143.32204056 C1.56267178 140.81692811 1.46390072 138.31188333 1.36459351 135.80685425 C0.45693026 112.89362562 -0.38322743 89.97817992 -1.12285233 67.05889511 C-1.18675206 65.08559716 -1.25167988 63.11233259 -1.31661987 61.1390686 C-1.78589476 46.75460328 -2.1297024 32.39253241 -2 18 C-7.21753227 19.98179299 -12.43498399 21.96379782 -17.65234375 23.94604492 C-22.15736432 25.65764003 -26.66260375 27.36865745 -31.16796875 29.0793457 C-42.31777601 33.31394304 -53.46439878 37.55646864 -64.6015625 41.82421875 C-67.48296133 42.92705272 -70.36443181 44.0296993 -73.24591064 45.13232422 C-75.08096515 45.83538967 -76.91556116 46.53965298 -78.74969482 47.24511719 C-81.29036555 48.22229377 -83.83251086 49.19553537 -86.375 50.16796875 C-87.12472076 50.45766037 -87.87444153 50.74735199 -88.6468811 51.04582214 C-93.77246307 53 -93.77246307 53 -96 53 C-95.99476318 53.62229492 -95.98952637 54.24458984 -95.98413086 54.88574219 C-95.8820424 68.97136475 -96.17278082 82.9372739 -97 97 C-86.77 97 -76.54 97 -66 97 C-66 100.63 -66 104.26 -66 108 C-88.98454721 108.13439701 -111.94118058 107.82429806 -134.91845703 107.25537109 C-138.46557072 107.16768179 -142.01274091 107.08437631 -145.56005859 107.00537109 C-164.65273735 106.57982778 -183.72569836 106.01248683 -202.796875 104.9921875 C-203.98691509 104.92971014 -203.98691509 104.92971014 -205.2009964 104.86597061 C-207.42954211 104.74728956 -209.6576679 104.62280205 -211.88574219 104.49560547 C-213.77302032 104.38851761 -213.77302032 104.38851761 -215.69842529 104.27926636 C-218.54560931 104.038435 -221.21816443 103.63480372 -224 103 C-224 102.67 -224 102.34 -224 102 C-182.74919865 98.96711253 -141.36685473 97.59576363 -100 98 C-100.1539624 97.00669678 -100.3079248 96.01339355 -100.46655273 94.98999023 C-101.02672635 91.05841844 -101.31108275 87.12338871 -101.53515625 83.16015625 C-101.59962196 82.07147499 -101.59962196 82.07147499 -101.66539001 80.96080017 C-101.75499201 79.43561955 -101.84315236 77.9103536 -101.92993164 76.38500977 C-102.0619476 74.07217768 -102.19958012 71.75972889 -102.33789062 69.44726562 C-102.42481507 67.9557487 -102.51141432 66.46421279 -102.59765625 64.97265625 C-102.63826675 64.29219742 -102.67887726 63.61173859 -102.72071838 62.91065979 C-102.98086531 58.26434536 -103.03340134 53.65121698 -103 49 C-103.61230469 48.91492188 -104.22460938 48.82984375 -104.85546875 48.7421875 C-107 48 -107 48 -108.30078125 46.2578125 C-108.63464844 45.55398437 -108.96851563 44.85015625 -109.3125 44.125 C-109.83263672 43.07699219 -109.83263672 43.07699219 -110.36328125 42.0078125 C-111 40 -111 40 -110 37 C-108.24880981 35.98762512 -108.24880981 35.98762512 -105.92236328 35.07739258 C-105.04415924 34.72829834 -104.1659552 34.3792041 -103.26113892 34.01953125 C-102.2906662 33.64828125 -101.32019348 33.27703125 -100.3203125 32.89453125 C-99.30480316 32.4977417 -98.28929382 32.10095215 -97.24301147 31.69213867 C-93.87578582 30.38429331 -90.50122393 29.09692401 -87.125 27.8125 C-85.97717041 27.37191254 -84.82934082 26.93132507 -83.64672852 26.47738647 C-14.49844044 0 -14.49844044 0 0 0 Z M-7.86230469 5.74291992 C-20.35697395 12.68455264 -33.5258722 17.89637191 -46.77392578 23.20117188 C-56.67142724 27.17160928 -66.39427896 31.36551873 -76 36 C-72.08644274 37.30451909 -69.81437046 36.09317931 -66.140625 34.67578125 C-65.45140961 34.41803925 -64.76219421 34.16029724 -64.05209351 33.89474487 C-61.781308 33.04279295 -59.51579622 32.17762381 -57.25 31.3125 C-55.68046304 30.72164846 -54.1106355 30.13156831 -52.54052734 29.54223633 C-44.65735786 26.57441057 -36.80041357 23.5421878 -28.9609375 20.4609375 C-27.89588989 20.04357582 -27.89588989 20.04357582 -26.80932617 19.61778259 C-23.43077073 18.29335539 -20.05625322 16.96025279 -16.68847656 15.60864258 C-15.48416992 15.13322021 -14.27986328 14.65779785 -13.0390625 14.16796875 C-11.98928223 13.74797607 -10.93950195 13.3279834 -9.85791016 12.89526367 C-7.05151366 12.01613707 -4.91710467 11.81378041 -2 12 C-2 9.03 -2 6.06 -2 3 C-4.15280825 3 -6.02324252 4.70430797 -7.86230469 5.74291992 Z M-79 37 C-79.66 37.66 -80.32 38.32 -81 39 C-79.35 38.67 -77.7 38.34 -76 38 C-76.99 37.67 -77.98 37.34 -79 37 Z " fill="#EAEAEA" transform="translate(239,202)"/>
<path d="M0 0 C64.91782165 -0.12202442 129.8333752 -0.05215946 194.75 0.375 C195.5191936 0.38003886 196.2883872 0.38507772 197.0808897 0.39026928 C247.73444344 0.72367174 298.36786325 1.4169494 349 3 C349 3.66 349 4.32 349 5 C326.22030037 6.63790394 303.52968674 7.35592333 280.69599533 7.54098511 C276.370911 7.57808054 272.04593551 7.62504934 267.72094727 7.671875 C266.85347838 7.68126036 265.9860095 7.69064571 265.09225368 7.70031548 C263.34887644 7.71921917 261.60549971 7.73816975 259.86212349 7.75716782 C257.2821078 7.78497858 254.70208322 7.81178424 252.12205505 7.83840942 C240.17517442 7.9635855 228.23186336 8.1686907 216.28729248 8.43676758 C144.208988 10.03607201 72.09274207 10.19044621 0 10 C0 6.7 0 3.4 0 0 Z " fill="#FDFDFD" transform="translate(252,201)"/>
<path d="M0 0 C3.96 0 7.92 0 12 0 C12.05032244 13.13042875 11.92607548 26.24799071 11.625 39.375 C11.5938208 40.76168884 11.5938208 40.76168884 11.56201172 42.1763916 C11.21262932 57.37517299 10.66959107 72.56210272 10 87.75 C9.95820618 88.7158905 9.91641235 89.68178101 9.87335205 90.67694092 C9.75305839 93.42546001 9.62764548 96.17368847 9.5 98.921875 C9.46458099 99.72523285 9.42916199 100.5285907 9.39266968 101.35629272 C9.15438337 106.28133329 8.66721288 111.11405571 8 116 C6.515 116.495 6.515 116.495 5 117 C2.57214173 104.82515735 2.3658118 92.5570437 1.9375 80.1875 C1.85489219 77.95782413 1.77171765 75.72816919 1.68798828 73.49853516 C1.05105273 56.33499537 0.48092522 39.16863927 0 22 C-7.26854828 21.86532336 -14.38817296 22.29586107 -21.625 22.9375 C-37.06563024 24.22744215 -52.51513144 24.63166915 -68 25 C-63.50894437 26.10144296 -59.07062697 26.20156749 -54.47265625 26.28125 C-53.64728867 26.29965942 -52.82192108 26.31806885 -51.97154236 26.33703613 C-49.33526464 26.39554314 -46.69892032 26.44834808 -44.0625 26.5 C-32.67634009 26.72719237 -21.35225484 27.03114884 -10 28 C-10 28.33 -10 28.66 -10 29 C-19.34942924 29.80385957 -28.68324861 30.29521031 -38.0625 30.5625 C-38.77491852 30.58367889 -39.48733704 30.60485779 -40.22134399 30.62667847 C-63.47224421 31.29635054 -86.74229455 31.09001719 -110 31 C-110 29.35 -110 27.7 -110 26 C-107.69 26 -105.38 26 -103 26 C-103 22.37 -103 18.74 -103 15 C-68.48100769 14.77998289 -34.38131265 15.8031411 0 19 C0 12.73 0 6.46 0 0 Z " fill="#EDEDED" transform="translate(380,275)"/>
<path d="M0 0 C97.35 0 194.7 0 295 0 C295 1.98 295 3.96 295 6 C286.5582847 6.75067396 278.20429934 7.14355278 269.73088074 7.12025452 C268.56821145 7.12110894 267.40554216 7.12196337 266.20764047 7.12284368 C262.35089452 7.12447759 258.49419305 7.11901163 254.63745117 7.11352539 C251.85724358 7.11268444 249.07703683 7.11335826 246.29682922 7.1139679 C240.33130123 7.1144899 234.36578424 7.11137705 228.40025902 7.10573006 C219.77532303 7.09757101 211.15039232 7.09499534 202.52545289 7.09374207 C188.52892847 7.09155844 174.53240991 7.08491711 160.53588867 7.07543945 C146.94702178 7.06624746 133.35815649 7.05917538 119.76928711 7.05493164 C118.93036976 7.05466892 118.09145241 7.05440619 117.22711333 7.05413551 C113.01812349 7.05283038 108.80913365 7.0515667 104.60014379 7.05032361 C69.73342502 7.03997248 34.86671305 7.02237299 0 7 C0 4.69 0 2.38 0 0 Z " fill="#FEFEFE" transform="translate(261,213)"/>
<path d="M0 0 C2.97 0 5.94 0 9 0 C9.33 4.62 9.66 9.24 10 14 C12.95743164 14.06731323 12.95743164 14.06731323 15.97460938 14.13598633 C25.15006576 14.34880711 34.32513447 14.57558705 43.5 14.8125 C44.32092133 14.83368645 45.14184265 14.85487289 45.98764038 14.87670135 C71.39122416 15.53812129 96.6942659 16.56224685 122 19 C118.99875477 22.00124523 115.49351679 21.56478108 111.4453125 21.81640625 C110.55689667 21.87779282 109.66848083 21.93917938 108.75314331 22.00242615 C106.84500562 22.13199975 104.93654814 22.25693134 103.02783203 22.37768555 C100.25326769 22.55433359 97.48028509 22.74734931 94.70703125 22.94335938 C76.45606457 24.15123693 58.32528189 24.49096439 40 25 C63.76 25.66 87.52 26.32 112 27 C112 27.33 112 27.66 112 28 C106.22131467 28.8131882 100.56961964 29.18997466 94.73828125 29.29711914 C93.40516655 29.32659889 93.40516655 29.32659889 92.04512024 29.35667419 C89.13431536 29.42007796 86.22342706 29.47766063 83.3125 29.53515625 C81.28368372 29.57820699 79.25487518 29.62162369 77.22607422 29.66539001 C71.90630116 29.77917294 66.58643809 29.88800613 61.26654053 29.99578857 C55.82997397 30.10681769 50.39350786 30.22255572 44.95703125 30.33789062 C34.30478025 30.56318739 23.65242814 30.78325215 13 31 C13 29.02 13 27.04 13 25 C11.68 25 10.36 25 9 25 C9.01087646 26.27198242 9.02175293 27.54396484 9.03295898 28.85449219 C9.11374286 42.84258805 8.75786748 56.79030667 8.20043945 70.76660156 C8.05990499 74.31553215 7.92905401 77.86474017 7.79882812 81.4140625 C7.71150612 83.67710535 7.62363721 85.94012717 7.53515625 88.203125 C7.49656998 89.26122375 7.4579837 90.31932251 7.41822815 91.40948486 C7.37826218 92.37940369 7.3382962 93.34932251 7.29711914 94.34863281 C7.24715538 95.62809784 7.24715538 95.62809784 7.19618225 96.93341064 C7 99 7 99 6 101 C5.01 100.67 4.02 100.34 3 100 C2.17507004 90.5117001 1.73377307 81.04204622 1.46484375 71.5234375 C1.42162042 70.06295219 1.37820486 68.60247256 1.33460999 67.14199829 C1.24444459 64.09813756 1.15644499 61.05422444 1.07006836 58.01025391 C0.96088406 54.16785716 0.8464418 50.32563856 0.73050499 46.4834404 C0.26494525 30.98822998 -0.17335337 15.50421135 0 0 Z " fill="#F0F0F0" transform="translate(523,276)"/>
<path d="M0 0 C0.33 0 0.66 0 1 0 C1 1.98 1 3.96 1 6 C11.56 5.67 22.12 5.34 33 5 C33 8.63 33 12.26 33 16 C10.01545279 16.13439701 -12.94118058 15.82429806 -35.91845703 15.25537109 C-39.46557072 15.16768179 -43.01274091 15.08437631 -46.56005859 15.00537109 C-65.65273735 14.57982778 -84.72569836 14.01248683 -103.796875 12.9921875 C-104.59023506 12.95053593 -105.38359512 12.90888435 -106.2009964 12.86597061 C-108.42954211 12.74728956 -110.6576679 12.62280205 -112.88574219 12.49560547 C-114.77302032 12.38851761 -114.77302032 12.38851761 -116.69842529 12.27926636 C-119.54560931 12.038435 -122.21816443 11.63480372 -125 11 C-125 10.67 -125 10.34 -125 10 C-83.41206305 6.94232527 -41.70386122 5.61582932 0 6 C0 4.02 0 2.04 0 0 Z " fill="#FCFCFC" transform="translate(140,294)"/>
<path d="M0 0 C15.48633343 -0.24571633 30.92158863 0.40978883 46.38549805 1.171875 C49.9099003 1.34511639 53.43477875 1.50515826 56.95993137 1.66228294 C60.35000825 1.81588199 63.73938796 1.98297148 67.12890625 2.1484375 C69.02546715 2.23138565 69.02546715 2.23138565 70.96034241 2.31600952 C72.70002541 2.40587631 72.70002541 2.40587631 74.47485352 2.49755859 C75.49676285 2.54641205 76.51867218 2.5952655 77.57154846 2.64559937 C80 3 80 3 82 5 C79.50849949 6.24575026 77.69543251 6.19802965 74.90771484 6.29711914 C73.31629166 6.3570681 73.31629166 6.3570681 71.69271851 6.41822815 C69.96923691 6.47610756 69.96923691 6.47610756 68.2109375 6.53515625 C67.03737701 6.57813339 65.86381653 6.62111053 64.6546936 6.66539001 C60.8949369 6.80207974 57.13498849 6.93235761 53.375 7.0625 C50.830714 7.15387564 48.2864429 7.2456671 45.7421875 7.33789062 C39.49495672 7.56342458 33.2475566 7.78369036 27 8 C27.5593222 8.02061493 28.11864441 8.04122986 28.69491577 8.06246948 C34.50250014 8.27838975 40.30945055 8.5076003 46.11621094 8.74462891 C48.28502167 8.83139433 50.45397198 8.91473965 52.62304688 8.99462891 C55.73610558 9.10987468 58.84845944 9.23730553 61.9609375 9.3671875 C62.934935 9.40061249 63.9089325 9.43403748 64.91244507 9.46847534 C66.26361923 9.528311 66.26361923 9.528311 67.64208984 9.58935547 C68.83455826 9.63598831 68.83455826 9.63598831 70.05111694 9.68356323 C72 10 72 10 74 12 C66.56648102 12.5771535 59.13234863 13.14585908 51.69775391 13.70898438 C49.17417127 13.9010977 46.65072941 14.09507039 44.12744141 14.29101562 C17.21278164 16.37857926 17.21278164 16.37857926 6 16 C6 13.36 6 10.72 6 8 C4.41532272 8.28427417 2.8322943 8.57774818 1.25 8.875 C-0.07257813 9.11863281 -0.07257813 9.11863281 -1.421875 9.3671875 C-3.86947744 9.96796264 -5.80599857 10.77997117 -8 12 C-7.0925 11.649375 -6.185 11.29875 -5.25 10.9375 C-1.99408687 9.99829429 -1.07250006 10.04485324 2 11 C-0.03530132 12.77862386 -2.07768098 14.54780002 -4.125 16.3125 C-4.69476563 16.81201172 -5.26453125 17.31152344 -5.8515625 17.82617188 C-9.36848883 20.8435348 -12.72651 23.09706297 -17 25 C-17.763125 24.195625 -18.52625 23.39125 -19.3125 22.5625 C-21.79430898 19.83200976 -21.79430898 19.83200976 -25 19 C-26.64820195 16.39757586 -27 15.13751221 -27 12 C-18.05058909 9.48144994 -9.22431907 7.30549022 0 6 C0 4.02 0 2.04 0 0 Z " fill="#FBFBFB" transform="translate(242,63)"/>
<path d="M0 0 C8.32139346 7.76040064 13.10508013 16.04889888 13.6953125 27.56640625 C13.70949219 28.24445312 13.72367187 28.9225 13.73828125 29.62109375 C10.73828125 28.62109375 10.73828125 28.62109375 8.87109375 25.19921875 C7.85212769 23.04140828 6.86333113 20.87120337 5.875 18.69921875 C3.73626023 14.17208087 1.5439045 11.00178698 -2.26171875 7.62109375 C-3.34453125 6.60015625 -3.34453125 6.60015625 -4.44921875 5.55859375 C-13.57987538 -0.73141415 -23.94647605 -2.31945617 -34.82421875 -0.81640625 C-44.66869432 1.32863821 -52.52947171 6.34467132 -58.26171875 14.62109375 C-61.98746827 20.49306791 -63.63388039 26.91242656 -65.26171875 33.62109375 C-69.13158833 33.69551432 -72.53531025 33.66811561 -76.26171875 32.62109375 C-73.62012567 19.55215957 -69.15816992 7.91256243 -58.26171875 -0.37890625 C-40.75871688 -11.17863081 -16.87039904 -14.00627332 0 0 Z " fill="#EAEAEA" transform="translate(304.26171875,21.37890625)"/>
<path d="M0 0 C2.97 0 5.94 0 9 0 C9.1644596 15.11853599 8.72679783 30.21878083 8.25537109 45.32836914 C8.16792689 48.13848589 8.08464918 50.94867434 8.00537109 53.7590332 C6.71969912 99.2490546 6.71969912 99.2490546 4 112 C3.01 112 2.02 112 1 112 C0.82669571 101.77093745 0.66038721 91.54177283 0.5 81.3125 C0.48218412 80.17661753 0.48218412 80.17661753 0.46400833 79.01778793 C0.0532003 52.67702912 -0.1362815 26.34426246 0 0 Z " fill="#D8D8D8" transform="translate(317,80)"/>
<path d="M0 0 C16.8213099 0.36982817 33.64252958 0.74349942 50.46365452 1.12164211 C58.27545425 1.29716523 66.08727749 1.47146999 73.89916992 1.64282227 C80.71462234 1.79232102 87.53001725 1.94419161 94.34535545 2.09881264 C97.94799654 2.18046625 101.5506542 2.26099854 105.15338326 2.33868217 C109.19291931 2.42582919 113.23231855 2.51827586 117.27172852 2.61108398 C119.02825493 2.64776939 119.02825493 2.64776939 120.82026672 2.68519592 C129.23644905 2.88469699 137.60541604 3.38486099 146 4 C146 4.33 146 4.66 146 5 C137.0418707 5.29799774 128.08351466 5.58884073 119.125 5.875 C118.09007416 5.9080637 118.09007416 5.9080637 117.03424072 5.94179535 C90.35908918 6.7917427 63.68095296 7.4851541 37 8.125 C36.07424416 8.1472036 35.14848831 8.1694072 34.19467926 8.19228363 C22.7965414 8.46531361 11.39831679 8.73454589 0 9 C0 6.03 0 3.06 0 0 Z " fill="#FCFCFC" transform="translate(387,265)"/>
<path d="M0 0 C4.57572724 2.58628061 6.611603 6.02907263 8 11 C8.39596685 14.88168647 8.32676829 18.72719884 8.25 22.625 C8.23831787 23.76767334 8.22663574 24.91034668 8.21459961 26.08764648 C8.17375419 29.32641002 8.11597576 32.56428025 8.04681396 35.80255127 C7.99678933 38.15070875 7.95072686 40.49892725 7.90478516 42.84716797 C7.80309595 47.91926154 7.6858405 52.99089117 7.5625 58.0625 C7.54312378 58.89170959 7.52374756 59.72091919 7.50378418 60.57525635 C7.44671771 62.93706977 7.38276922 65.29858783 7.31640625 67.66015625 C7.29967361 68.37352646 7.28294098 69.08689667 7.26570129 69.82188416 C7.11504585 74.76990829 7.11504585 74.76990829 6 77 C3.03 77 0.06 77 -3 77 C-2.91435791 75.72584229 -2.82871582 74.45168457 -2.74047852 73.13891602 C-2.41734257 68.3285792 -2.09514002 63.51818022 -1.77319336 58.70776367 C-1.63476885 56.64134084 -1.49610437 54.57493406 -1.35717773 52.50854492 C-1.02295007 47.53615436 -0.69277254 42.5635827 -0.37158203 37.59033203 C-0.14256313 34.06283726 0.11041743 30.53887688 0.39111328 27.01513672 C0.4475148 26.25136215 0.50391632 25.48758759 0.56202698 24.70066833 C0.71060567 22.69038887 0.87054948 20.6809581 1.03149414 18.67163086 C0.9892743 13.74958333 0.53656308 8.81094934 -2.75 4.9375 C-5.96867409 3.5963858 -7.70911001 3.90303667 -11 5 C-13.38388916 7.43608793 -13.38388916 7.43608793 -15 10 C-15.99 9.67 -16.98 9.34 -18 9 C-14.85462555 2.25991189 -14.85462555 2.25991189 -12 0 C-7.80930327 -1.39689891 -4.27836183 -0.95660555 0 0 Z " fill="#DDDDDD" transform="translate(341,321)"/>
<path d="M0 0 C4.47433702 2.32321345 6.72402888 4.55452883 9 9 C10.85867372 17.82221642 10.00375204 27.38327511 9.703125 36.35229492 C9.62570771 38.66634602 9.55805357 40.98051606 9.4921875 43.29492188 C9.18635124 53.54288325 8.65473518 63.76874745 8 74 C5.03 74 2.06 74 -1 74 C-0.94544647 73.29113647 -0.89089294 72.58227295 -0.83468628 71.85192871 C-0.32082229 65.14477861 0.1805607 58.43682286 0.66823006 51.72771454 C0.91933005 48.27918596 1.17510455 44.83114215 1.44189453 41.38378906 C1.74897175 37.41311392 2.03512058 33.44105933 2.3203125 29.46875 C2.41813019 28.24136108 2.51594788 27.01397217 2.61672974 25.74938965 C3.38131083 15.44421998 3.38131083 15.44421998 -0.3125 6 C-2.84578755 4.49879256 -4.10317081 4.37925089 -7 5 C-8.88261398 6.86103674 -10.37767005 8.89535574 -12 11 C-12.66 11 -13.32 11 -14 11 C-13.67641073 7.44051799 -13.3899006 5.46536524 -11.0625 2.6875 C-7.34591823 -0.35333963 -4.78286635 -0.3985722 0 0 Z " fill="#DBDBDB" transform="translate(463,300)"/>
<path d="M0 0 C4.07996927 2.17019642 5.65385721 4.73572556 7.38696289 8.96704102 C8.50748555 12.682928 8.3467055 16.33752634 8.25 20.1875 C8.23831787 21.09935059 8.22663574 22.01120117 8.21459961 22.95068359 C8.16290063 26.30110246 8.08191655 29.65018264 8 33 C7.96780758 34.4933171 7.93609621 35.98664463 7.90478516 37.47998047 C7.8011496 42.36192623 7.68424196 47.24347536 7.5625 52.125 C7.54312378 52.93061371 7.52374756 53.73622742 7.50378418 54.56625366 C7.44635596 56.88027483 7.38243568 59.19402255 7.31640625 61.5078125 C7.29967361 62.20486801 7.28294098 62.90192352 7.26570129 63.62010193 C7.16601911 66.87283464 6.97704815 69.883579 6 73 C3.36 73 0.72 73 -2 73 C-2.0819201 66.43035477 -1.87168703 59.95377107 -1.34375 53.40625 C-1.27716187 52.53407837 -1.21057373 51.66190674 -1.14196777 50.76330566 C-0.86082931 47.08248349 -0.5709014 43.40236698 -0.28173828 39.72216797 C-0.07016103 37.01292362 0.13687824 34.30335708 0.34375 31.59375 C0.44218201 30.37298767 0.44218201 30.37298767 0.54260254 29.12756348 C1.96536029 16.99731175 1.96536029 16.99731175 -2 6 C-4.55721737 4.57442644 -4.55721737 4.57442644 -7 4 C-10.52381687 6.54604597 -10.52381687 6.54604597 -13 10 C-13.99 10 -14.98 10 -16 10 C-13.47768915 0.75152688 -9.2830875 -1.46178488 0 0 Z " fill="#DBDBDB" transform="translate(426,301)"/>
<path d="M0 0 C3.29840703 2.5966183 5.52441435 5.08300562 7 9 C7.18165953 11.80066056 7.25616606 14.49795127 7.23046875 17.296875 C7.23032524 18.52443512 7.23032524 18.52443512 7.23017883 19.77679443 C7.22645987 22.4346793 7.20754992 25.09219214 7.1875 27.75 C7.1806561 29.56705607 7.17414646 31.38411342 7.16796875 33.20117188 C7.10326548 46.48453082 6.75483556 59.7364609 6 73 C3.03 73 0.06 73 -3 73 C-2.73432971 68.69900293 -2.46776156 64.39806262 -2.20043945 60.09716797 C-2.11003661 58.64080224 -2.01985916 57.1844225 -1.92993164 55.72802734 C-1.79896643 53.60770789 -1.66730023 51.4874338 -1.53515625 49.3671875 C-1.49135834 48.66393845 -1.44756042 47.96068939 -1.4024353 47.23612976 C-1.11392548 42.65894883 -0.7896053 38.0853937 -0.44921875 33.51171875 C-0.07469864 28.31669049 0.20997396 23.14588856 0.25 17.9375 C0.270625 17.23173828 0.29125 16.52597656 0.3125 15.79882812 C0.34586065 11.34935138 -0.1967827 8.50073146 -3 5 C-5.83975058 3.58225893 -5.83975058 3.58225893 -9 4 C-11.01039335 5.81264974 -12.38312621 7.79925512 -14 10 C-14.66 10 -15.32 10 -16 10 C-15.80983707 5.91149698 -15.18968382 4.22287849 -12.5 1.0625 C-8.50884921 -1.90922433 -4.57005423 -1.54302569 0 0 Z " fill="#DBDBDB" transform="translate(501,301)"/>
<path d="M0 0 C3.63 0 7.26 0 11 0 C10.8795451 6.29076697 10.75522389 12.58144296 10.62768555 18.87207031 C10.58501821 21.00128227 10.54331379 23.13051379 10.50268555 25.25976562 C10.28539395 36.61258103 10.01207326 47.95976082 9.52734375 59.3046875 C9.49024796 60.22428253 9.45315216 61.14387756 9.41493225 62.09133911 C9.37589279 62.94275482 9.33685333 63.79417053 9.29663086 64.67138672 C9.24701454 65.78500076 9.24701454 65.78500076 9.19639587 66.92111206 C8.99705011 69.03122514 8.56770043 70.96075485 8 73 C7.34 73 6.68 73 6 73 C3.78705647 48.68016931 1.59252255 24.3697859 0 0 Z " fill="#D8D8D8" transform="translate(244,86)"/>
<path d="M0 0 C3.3 0 6.6 0 10 0 C10.26236487 12.81215105 9.85074879 25.52796821 9.0625 38.3125 C9.01893372 39.03041718 8.97536743 39.74833435 8.93048096 40.48800659 C8.48863333 47.68596973 8.02561668 54.85764242 7 62 C6.01 62 5.02 62 4 62 C1.75914633 53.62033711 1.33187973 45.24155032 0.875 36.625 C0.83264221 35.87309387 0.79028442 35.12118774 0.74664307 34.34649658 C0.10135473 22.8916361 -0.27247819 11.47435936 0 0 Z " fill="#DDDDDD" transform="translate(598,220)"/>
<path d="M0 0 C0.33 0 0.66 0 1 0 C1.33 3.3 1.66 6.6 2 10 C3.40035995 10.03425331 3.40035995 10.03425331 4.82901001 10.06919861 C13.68385659 10.28622046 22.53861106 10.5067133 31.39328957 10.73049068 C35.94411888 10.84539171 40.49497077 10.9591253 45.04589844 11.07006836 C49.44857526 11.17744237 53.85116089 11.28804294 58.25370407 11.40075874 C59.92233873 11.442936 61.59100182 11.48400564 63.25969315 11.5238781 C73.2023189 11.76229871 83.08498845 12.18160838 93 13 C93 13.33 93 13.66 93 14 C83.65057076 14.80385957 74.31675139 15.29521031 64.9375 15.5625 C64.22508148 15.58367889 63.51266296 15.60485779 62.77865601 15.62667847 C39.52775579 16.29635054 16.25770545 16.09001719 -7 16 C-7 14.35 -7 12.7 -7 11 C-4.69 11 -2.38 11 0 11 C0 7.37 0 3.74 0 0 Z " fill="#F8F8F8" transform="translate(277,290)"/>
<path d="M0 0 C2.97 0 5.94 0 9 0 C9.33 19.47 9.66 38.94 10 59 C8.68 58.67 7.36 58.34 6 58 C5.13875908 51.02653322 4.28507102 44.05217106 3.43652344 37.07714844 C3.14722993 34.70649494 2.85623478 32.33604844 2.56347656 29.96582031 C2.14195881 26.55066625 1.7266507 23.13480432 1.3125 19.71875 C1.18125732 18.66635132 1.05001465 17.61395264 0.91479492 16.52966309 C0.24743299 10.9716706 -0.14052978 5.59776949 0 0 Z " fill="#D5D5D5" transform="translate(223,94)"/>
<path d="M0 0 C10.12505259 0.14226475 20.25004782 0.28827568 30.375 0.4375 C31.49691868 0.45403185 31.49691868 0.45403185 32.64150238 0.47089767 C57.76478255 0.84231637 82.88290761 1.32086457 108 2 C108 2.33 108 2.66 108 3 C101.60776228 3.79557833 95.32813577 4.18826111 88.89038086 4.29711914 C87.44000427 4.32659889 87.44000427 4.32659889 85.96032715 4.35667419 C82.79522864 4.42005 79.63005382 4.47764772 76.46484375 4.53515625 C74.2580954 4.5782095 72.05135412 4.6216262 69.84461975 4.66539001 C64.05960512 4.77914734 58.27450822 4.88799053 52.48937988 4.99578857 C46.57684634 5.10683781 40.66440452 5.22256477 34.75195312 5.33789062 C23.16805346 5.56315553 11.58406144 5.78322576 0 6 C0 4.02 0 2.04 0 0 Z " fill="#FBFBFB" transform="translate(392,258)"/>
<path d="M0 0 C13.57358595 -0.15187229 27.0699524 0.31881886 40.625 1 C42.61456408 1.09675099 44.60414739 1.19310726 46.59375 1.2890625 C51.39606633 1.52151089 56.19809387 1.75923234 61 2 C61 2.66 61 3.32 61 4 C47.60627026 5.99483474 34.46111299 6.2423944 20.9375 6.125 C18.89518674 6.11493854 16.85286861 6.10581835 14.81054688 6.09765625 C9.87357479 6.0759202 4.93684327 6.04156938 0 6 C0 4.02 0 2.04 0 0 Z " fill="#FBFBFB" transform="translate(255,154)"/>
<path d="M0 0 C0.33 0 0.66 0 1 0 C1 2.64 1 5.28 1 8 C-1.97 9.32 -4.94 10.64 -8 12 C-7.0925 11.649375 -6.185 11.29875 -5.25 10.9375 C-1.99408687 9.99829429 -1.07250006 10.04485324 2 11 C-0.03530132 12.77862386 -2.07768098 14.54780002 -4.125 16.3125 C-4.69476563 16.81201172 -5.26453125 17.31152344 -5.8515625 17.82617188 C-9.36848883 20.8435348 -12.72651 23.09706297 -17 25 C-17.763125 24.195625 -18.52625 23.39125 -19.3125 22.5625 C-21.79430898 19.83200976 -21.79430898 19.83200976 -25 19 C-26.64820195 16.39757586 -27 15.13751221 -27 12 C-18.05058909 9.48144994 -9.22431907 7.30549022 0 6 C0 4.02 0 2.04 0 0 Z " fill="#E5E5E5" transform="translate(242,63)"/>
<path d="M0 0 C3.625 0.4375 3.625 0.4375 5.82714844 2.38745117 C8.29849087 6.58007488 8.13175894 9.89913575 8.015625 14.67578125 C8.00996521 15.55654831 8.00430542 16.43731537 7.99847412 17.34477234 C7.9761533 20.14707693 7.92596577 22.94808446 7.875 25.75 C7.85492941 27.65427836 7.83667961 29.55857684 7.8203125 31.46289062 C7.77630267 36.12159053 7.70730549 40.77932565 7.625 45.4375 C5.315 45.4375 3.005 45.4375 0.625 45.4375 C0.73158936 43.73436646 0.73158936 43.73436646 0.84033203 41.99682617 C1.10091016 37.78747627 1.34728392 33.57739474 1.58935547 29.36694336 C1.69615071 27.54412064 1.80680637 25.72151985 1.92138672 23.89916992 C2.08533902 21.28092302 2.23542892 18.66219402 2.3828125 16.04296875 C2.46391769 14.81938911 2.46391769 14.81938911 2.54666138 13.5710907 C2.82368702 8.71725138 2.82368702 8.71725138 0.625 4.4375 C-0.365 4.4375 -1.355 4.4375 -2.375 4.4375 C-3.365 5.9225 -3.365 5.9225 -4.375 7.4375 C-5.035 7.4375 -5.695 7.4375 -6.375 7.4375 C-5.61483846 2.62314359 -5.2237107 0.67714768 0 0 Z " fill="#D0D0D0" transform="translate(303.375,94.5625)"/>
<path d="M0 0 C3.625 0.4375 3.625 0.4375 5.82714844 2.38745117 C8.29849087 6.58007488 8.13175894 9.89913575 8.015625 14.67578125 C8.00996521 15.55654831 8.00430542 16.43731537 7.99847412 17.34477234 C7.9761533 20.14707693 7.92596577 22.94808446 7.875 25.75 C7.85492941 27.65427836 7.83667961 29.55857684 7.8203125 31.46289062 C7.77630267 36.12159053 7.70730549 40.77932565 7.625 45.4375 C5.315 45.4375 3.005 45.4375 0.625 45.4375 C0.73158936 43.73436646 0.73158936 43.73436646 0.84033203 41.99682617 C1.10091016 37.78747627 1.34728392 33.57739474 1.58935547 29.36694336 C1.69615071 27.54412064 1.80680637 25.72151985 1.92138672 23.89916992 C2.08533902 21.28092302 2.23542892 18.66219402 2.3828125 16.04296875 C2.46391769 14.81938911 2.46391769 14.81938911 2.54666138 13.5710907 C2.82368702 8.71725138 2.82368702 8.71725138 0.625 4.4375 C-0.365 4.1075 -1.355 3.7775 -2.375 3.4375 C-3.035 4.7575 -3.695 6.0775 -4.375 7.4375 C-5.035 7.4375 -5.695 7.4375 -6.375 7.4375 C-5.61483846 2.62314359 -5.2237107 0.67714768 0 0 Z " fill="#D1D1D1" transform="translate(266.375,94.5625)"/>
<path d="M0 0 C3.125 0.375 3.125 0.375 5.4375 2.1875 C8.70807259 6.42713114 8.27860618 10.76419962 8.25 15.875 C8.24806641 16.70491455 8.24613281 17.5348291 8.24414062 18.38989258 C8.18317978 27.40109053 7.68886782 36.38332214 7.125 45.375 C5.145 45.375 3.165 45.375 1.125 45.375 C1.01533935 39.40458667 1.14733593 33.51648174 1.625 27.5625 C3.19537742 15.69246201 3.19537742 15.69246201 1.125 4.375 C-0.85036745 4.72286708 -0.85036745 4.72286708 -2.875 5.375 C-3.205 6.035 -3.535 6.695 -3.875 7.375 C-4.535 7.375 -5.195 7.375 -5.875 7.375 C-4.80957944 0.62733645 -4.80957944 0.62733645 0 0 Z " fill="#D1D1D1" transform="translate(284.875,94.625)"/>
<path d="M0 0 C5.69273817 0.26254774 11.38526404 0.52920406 17.07763672 0.79956055 C19.01150383 0.89084166 20.94542297 0.98102761 22.87939453 1.07006836 C25.6697427 1.19873202 28.45987594 1.33141867 31.25 1.46484375 C32.10553467 1.50343002 32.96106934 1.5420163 33.8425293 1.58177185 C38.94048263 1.83016626 43.9431432 2.30417243 49 3 C49 3.33 49 3.66 49 4 C38.40014872 4.96642564 27.82328505 5.30293557 17.1875 5.5625 C15.51236197 5.60581834 13.83723166 5.6494362 12.16210938 5.69335938 C8.10815339 5.79901768 4.05411533 5.90065165 0 6 C0 4.02 0 2.04 0 0 Z " fill="#F5F5F5" transform="translate(261,161)"/>
<path d="M0 0 C2.64 0 5.28 0 8 0 C7.73896069 4.09379545 7.47231416 8.1871829 7.20043945 12.28027344 C7.10872227 13.67307602 7.01854468 15.06598086 6.92993164 16.45898438 C6.80238058 18.4598971 6.6688538 20.46042608 6.53515625 22.4609375 C6.456604 23.66540527 6.37805176 24.86987305 6.29711914 26.11083984 C6 29 6 29 5 31 C4.34 31 3.68 31 3 31 C2.49530384 26.77137996 1.99706416 22.54202341 1.5 18.3125 C1.35691406 17.11431641 1.21382812 15.91613281 1.06640625 14.68164062 C0.93105469 13.52470703 0.79570312 12.36777344 0.65625 11.17578125 C0.53056641 10.11270752 0.40488281 9.04963379 0.27539062 7.9543457 C0.02605799 5.27954584 -0.05207267 2.68391231 0 0 Z " fill="#CCCCCC" transform="translate(177,298)"/>
<path d="M0 0 C2.31 0 4.62 0 7 0 C6.34 9.24 5.68 18.48 5 28 C4.01 27.67 3.02 27.34 2 27 C1.34 18.09 0.68 9.18 0 0 Z " fill="#C4C4C4" transform="translate(249,167)"/>
<path d="M0 0 C-2.03530132 1.77862386 -4.07768098 3.54780002 -6.125 5.3125 C-6.69476563 5.81201172 -7.26453125 6.31152344 -7.8515625 6.82617188 C-11.36848883 9.8435348 -14.72651 12.09706297 -19 14 C-21.0625 11.6875 -21.0625 11.6875 -23 9 C-22.67 8.01 -22.34 7.02 -22 6 C-19.67294738 4.83647369 -17.2766273 4.09072981 -14.80859375 3.28125 C-14.02613281 3.0234375 -13.24367187 2.765625 -12.4375 2.5 C-11.69371094 2.2628125 -10.94992188 2.025625 -10.18359375 1.78125 C-7.96951011 1.06045482 -7.96951011 1.06045482 -5.97265625 -0.15625 C-3.55563628 -1.19006448 -2.42944857 -0.8676602 0 0 Z " fill="#DADADA" transform="translate(244,74)"/>
<path d="M0 0 C5.3902199 0.4146323 9.06129627 3.51941315 13.3125 6.5625 C14.05306641 7.08263672 14.79363281 7.60277344 15.55664062 8.13867188 C17.37648184 9.41843118 19.19054184 10.70562218 21 12 C16.12553262 13.59641728 12.50621434 11.89427804 7.8125 10.3125 C6.98041016 10.05533203 6.14832031 9.79816406 5.29101562 9.53320312 C4.50017578 9.27087891 3.70933594 9.00855469 2.89453125 8.73828125 C2.17112549 8.50149658 1.44771973 8.26471191 0.70239258 8.02075195 C-1 7 -1 7 -1.8684082 5.07885742 C-2 3 -2 3 0 0 Z " fill="#E0E0E0" transform="translate(363,256)"/>
<path d="M0 0 C5.3278563 0.23430343 9.14026946 3.57594355 13.3125 6.5625 C14.05306641 7.08263672 14.79363281 7.60277344 15.55664062 8.13867188 C17.37648184 9.41843118 19.19054184 10.70562218 21 12 C17.6092579 13.16514544 15.76880023 12.84338928 12.453125 11.56640625 C11.60878906 11.24736328 10.76445312 10.92832031 9.89453125 10.59960938 C9.02183594 10.25736328 8.14914062 9.91511719 7.25 9.5625 C6.36183594 9.22412109 5.47367187 8.88574219 4.55859375 8.53710938 C2.36846127 7.70109106 0.18272086 6.85514209 -2 6 C-1.125 1.125 -1.125 1.125 0 0 Z " fill="#E2E2E2" transform="translate(253,281)"/>
<path d="M0 0 C1.65 0 3.3 0 5 0 C5 5.61 5 11.22 5 17 C3.35 17 1.7 17 0 17 C-1.75559942 15.24440058 -1.13221919 12.96417558 -1.13671875 10.62890625 C-1.13285156 9.92636719 -1.12898437 9.22382813 -1.125 8.5 C-1.12886719 7.79746094 -1.13273438 7.09492188 -1.13671875 6.37109375 C-1.12661378 1.12661378 -1.12661378 1.12661378 0 0 Z " fill="#D3D3D3" transform="translate(608,202)"/>
<path d="M0 0 C-0.78503906 0.32613281 -1.57007813 0.65226563 -2.37890625 0.98828125 C-3.42949219 1.42527344 -4.48007813 1.86226562 -5.5625 2.3125 C-7.20605469 2.993125 -7.20605469 2.993125 -8.8828125 3.6875 C-11.25916466 4.68806933 -13.59806043 5.73115904 -15.9375 6.8125 C-18.90388015 7.96272904 -20.85900298 8.28554518 -24 8 C-24.33 6.35 -24.66 4.7 -25 3 C-21.58604938 2.29852167 -18.16853031 1.61627764 -14.75 0.9375 C-13.78191406 0.73833984 -12.81382812 0.53917969 -11.81640625 0.33398438 C-10.88183594 0.15029297 -9.94726562 -0.03339844 -8.984375 -0.22265625 C-8.12553711 -0.39547119 -7.26669922 -0.56828613 -6.38183594 -0.74633789 C-3.94790649 -1.00554788 -2.31101537 -0.75084609 0 0 Z " fill="#E7E7E7" transform="translate(248,158)"/>
<path d="M0 0 C-3.29590691 2.70329311 -6.75613519 4.41900085 -10.625 6.1875 C-11.77226562 6.71730469 -12.91953125 7.24710938 -14.1015625 7.79296875 C-17 9 -17 9 -19 9 C-19.33 7.68 -19.66 6.36 -20 5 C-6.08928571 -0.36904762 -6.08928571 -0.36904762 0 0 Z " fill="#DDDDDD" transform="translate(247,163)"/>
<path d="M0 0 C0.66 0.33 1.32 0.66 2 1 C1.1875 3.4375 1.1875 3.4375 0 6 C-0.99 6.33 -1.98 6.66 -3 7 C-2.25 2.25 -2.25 2.25 0 0 Z " fill="#B2B2B2" transform="translate(263,95)"/>
<path d="M0 0 C0.66 0.33 1.32 0.66 2 1 C1.01 2.98 0.02 4.96 -1 7 C-1.66 7 -2.32 7 -3 7 C-2.25 2.25 -2.25 2.25 0 0 Z " fill="#AEAEAE" transform="translate(282,95)"/>
</svg>
